<mxfile host="app.diagrams.net" modified="2024-01-31T01:21:28.867Z" agent="Mozilla/5.0 (Windows NT 10.0; Win64; x64; rv:122.0) Gecko/20100101 Firefox/122.0" etag="5RdOVMtH864oWzJVvYVE" version="23.0.2" type="github">
  <diagram id="C5RBs43oDa-KdzZeNtuy" name="Page-1">
    <mxGraphModel dx="1198" dy="787" grid="1" gridSize="10" guides="1" tooltips="1" connect="1" arrows="1" fold="1" page="1" pageScale="1" pageWidth="827" pageHeight="1169" math="0" shadow="0">
      <root>
        <mxCell id="WIyWlLk6GJQsqaUBKTNV-0" />
        <mxCell id="WIyWlLk6GJQsqaUBKTNV-1" parent="WIyWlLk6GJQsqaUBKTNV-0" />
        <mxCell id="8bV6FElE6FeWnAUVZOFj-7" value="" style="edgeStyle=orthogonalEdgeStyle;rounded=0;orthogonalLoop=1;jettySize=auto;html=1;" edge="1" parent="WIyWlLk6GJQsqaUBKTNV-1" source="8bV6FElE6FeWnAUVZOFj-2" target="8bV6FElE6FeWnAUVZOFj-6">
          <mxGeometry relative="1" as="geometry" />
        </mxCell>
        <mxCell id="8bV6FElE6FeWnAUVZOFj-2" value="Read custom autocomplete word into an array" style="shape=parallelogram;perimeter=parallelogramPerimeter;whiteSpace=wrap;html=1;fixedSize=1;" vertex="1" parent="WIyWlLk6GJQsqaUBKTNV-1">
          <mxGeometry x="500" y="42.5" width="280" height="60" as="geometry" />
        </mxCell>
        <mxCell id="8bV6FElE6FeWnAUVZOFj-14" value="" style="edgeStyle=orthogonalEdgeStyle;rounded=0;orthogonalLoop=1;jettySize=auto;html=1;" edge="1" parent="WIyWlLk6GJQsqaUBKTNV-1" source="8bV6FElE6FeWnAUVZOFj-3" target="8bV6FElE6FeWnAUVZOFj-13">
          <mxGeometry relative="1" as="geometry" />
        </mxCell>
        <mxCell id="8bV6FElE6FeWnAUVZOFj-3" value="Prompt User to enter sentence" style="shape=parallelogram;perimeter=parallelogramPerimeter;whiteSpace=wrap;html=1;fixedSize=1;" vertex="1" parent="WIyWlLk6GJQsqaUBKTNV-1">
          <mxGeometry x="260" y="155" width="150" height="50" as="geometry" />
        </mxCell>
        <mxCell id="8bV6FElE6FeWnAUVZOFj-8" value="" style="edgeStyle=orthogonalEdgeStyle;rounded=0;orthogonalLoop=1;jettySize=auto;html=1;" edge="1" parent="WIyWlLk6GJQsqaUBKTNV-1" source="8bV6FElE6FeWnAUVZOFj-5" target="8bV6FElE6FeWnAUVZOFj-10">
          <mxGeometry relative="1" as="geometry" />
        </mxCell>
        <mxCell id="8bV6FElE6FeWnAUVZOFj-5" value="&lt;div&gt;Create arrays for&lt;/div&gt;&lt;div&gt;- Word (size = 21)&lt;/div&gt;&lt;div&gt;- Sentence (size = 251)&lt;br&gt;&lt;/div&gt;&lt;div&gt;- Autocomplete words (Array of n arrays of length 21)&lt;/div&gt;&lt;div&gt;- Words(size = 251 / 2)&lt;/div&gt;&lt;div&gt;&lt;span style=&quot;white-space: pre;&quot;&gt;&#x9;&lt;/span&gt;- Contains arrays of max size 20&lt;/div&gt;" style="rounded=0;whiteSpace=wrap;html=1;align=left;" vertex="1" parent="WIyWlLk6GJQsqaUBKTNV-1">
          <mxGeometry x="30" y="10" width="210" height="105" as="geometry" />
        </mxCell>
        <mxCell id="8bV6FElE6FeWnAUVZOFj-12" value="" style="edgeStyle=orthogonalEdgeStyle;rounded=0;orthogonalLoop=1;jettySize=auto;html=1;" edge="1" parent="WIyWlLk6GJQsqaUBKTNV-1" source="8bV6FElE6FeWnAUVZOFj-6" target="8bV6FElE6FeWnAUVZOFj-3">
          <mxGeometry relative="1" as="geometry" />
        </mxCell>
        <mxCell id="8bV6FElE6FeWnAUVZOFj-6" value="Add to autocomplete words array" style="rounded=0;whiteSpace=wrap;html=1;" vertex="1" parent="WIyWlLk6GJQsqaUBKTNV-1">
          <mxGeometry x="440" y="150" width="120" height="60" as="geometry" />
        </mxCell>
        <mxCell id="8bV6FElE6FeWnAUVZOFj-11" value="" style="edgeStyle=orthogonalEdgeStyle;rounded=0;orthogonalLoop=1;jettySize=auto;html=1;" edge="1" parent="WIyWlLk6GJQsqaUBKTNV-1" source="8bV6FElE6FeWnAUVZOFj-10" target="8bV6FElE6FeWnAUVZOFj-2">
          <mxGeometry relative="1" as="geometry" />
        </mxCell>
        <mxCell id="8bV6FElE6FeWnAUVZOFj-10" value="Print program intro" style="shape=parallelogram;perimeter=parallelogramPerimeter;whiteSpace=wrap;html=1;fixedSize=1;" vertex="1" parent="WIyWlLk6GJQsqaUBKTNV-1">
          <mxGeometry x="270" y="62.5" width="140" height="40" as="geometry" />
        </mxCell>
        <mxCell id="8bV6FElE6FeWnAUVZOFj-18" value="" style="edgeStyle=orthogonalEdgeStyle;rounded=0;orthogonalLoop=1;jettySize=auto;html=1;" edge="1" parent="WIyWlLk6GJQsqaUBKTNV-1" source="8bV6FElE6FeWnAUVZOFj-13" target="8bV6FElE6FeWnAUVZOFj-17">
          <mxGeometry relative="1" as="geometry" />
        </mxCell>
        <mxCell id="8bV6FElE6FeWnAUVZOFj-13" value="&lt;div&gt;Read sentence into&lt;/div&gt;&lt;div&gt;Sentence char[]&lt;/div&gt;" style="shape=parallelogram;perimeter=parallelogramPerimeter;whiteSpace=wrap;html=1;fixedSize=1;" vertex="1" parent="WIyWlLk6GJQsqaUBKTNV-1">
          <mxGeometry x="50" y="155" width="150" height="50" as="geometry" />
        </mxCell>
        <mxCell id="8bV6FElE6FeWnAUVZOFj-20" value="" style="edgeStyle=orthogonalEdgeStyle;rounded=0;orthogonalLoop=1;jettySize=auto;html=1;" edge="1" parent="WIyWlLk6GJQsqaUBKTNV-1" source="8bV6FElE6FeWnAUVZOFj-17" target="8bV6FElE6FeWnAUVZOFj-19">
          <mxGeometry relative="1" as="geometry" />
        </mxCell>
        <mxCell id="8bV6FElE6FeWnAUVZOFj-17" value="Set Sentence array index m to 0" style="whiteSpace=wrap;html=1;" vertex="1" parent="WIyWlLk6GJQsqaUBKTNV-1">
          <mxGeometry x="65" y="240" width="120" height="60" as="geometry" />
        </mxCell>
        <mxCell id="8bV6FElE6FeWnAUVZOFj-22" value="" style="edgeStyle=orthogonalEdgeStyle;rounded=0;orthogonalLoop=1;jettySize=auto;html=1;" edge="1" parent="WIyWlLk6GJQsqaUBKTNV-1" source="8bV6FElE6FeWnAUVZOFj-19" target="8bV6FElE6FeWnAUVZOFj-21">
          <mxGeometry relative="1" as="geometry" />
        </mxCell>
        <mxCell id="8bV6FElE6FeWnAUVZOFj-19" value="&lt;div&gt;Set Word array index n to 0&lt;/div&gt;" style="whiteSpace=wrap;html=1;" vertex="1" parent="WIyWlLk6GJQsqaUBKTNV-1">
          <mxGeometry x="65" y="330" width="120" height="60" as="geometry" />
        </mxCell>
        <mxCell id="8bV6FElE6FeWnAUVZOFj-24" value="" style="edgeStyle=orthogonalEdgeStyle;rounded=0;orthogonalLoop=1;jettySize=auto;html=1;" edge="1" parent="WIyWlLk6GJQsqaUBKTNV-1" source="8bV6FElE6FeWnAUVZOFj-21" target="8bV6FElE6FeWnAUVZOFj-23">
          <mxGeometry relative="1" as="geometry" />
        </mxCell>
        <mxCell id="8bV6FElE6FeWnAUVZOFj-21" value="access char at Sentence[m]" style="whiteSpace=wrap;html=1;" vertex="1" parent="WIyWlLk6GJQsqaUBKTNV-1">
          <mxGeometry x="240" y="330" width="120" height="60" as="geometry" />
        </mxCell>
        <mxCell id="8bV6FElE6FeWnAUVZOFj-26" value="&lt;div&gt;T&lt;/div&gt;" style="edgeStyle=orthogonalEdgeStyle;rounded=0;orthogonalLoop=1;jettySize=auto;html=1;" edge="1" parent="WIyWlLk6GJQsqaUBKTNV-1" source="8bV6FElE6FeWnAUVZOFj-23" target="8bV6FElE6FeWnAUVZOFj-25">
          <mxGeometry x="-0.5789" relative="1" as="geometry">
            <mxPoint as="offset" />
          </mxGeometry>
        </mxCell>
        <mxCell id="8bV6FElE6FeWnAUVZOFj-28" value="F" style="edgeStyle=orthogonalEdgeStyle;rounded=0;orthogonalLoop=1;jettySize=auto;html=1;" edge="1" parent="WIyWlLk6GJQsqaUBKTNV-1" source="8bV6FElE6FeWnAUVZOFj-23" target="8bV6FElE6FeWnAUVZOFj-27">
          <mxGeometry x="-0.1111" relative="1" as="geometry">
            <mxPoint as="offset" />
          </mxGeometry>
        </mxCell>
        <mxCell id="8bV6FElE6FeWnAUVZOFj-23" value="&lt;div&gt;isAlpha&lt;/div&gt;" style="rhombus;whiteSpace=wrap;html=1;" vertex="1" parent="WIyWlLk6GJQsqaUBKTNV-1">
          <mxGeometry x="260" y="430" width="80" height="80" as="geometry" />
        </mxCell>
        <mxCell id="8bV6FElE6FeWnAUVZOFj-37" value="" style="edgeStyle=orthogonalEdgeStyle;rounded=0;orthogonalLoop=1;jettySize=auto;html=1;" edge="1" parent="WIyWlLk6GJQsqaUBKTNV-1" source="8bV6FElE6FeWnAUVZOFj-25" target="8bV6FElE6FeWnAUVZOFj-36">
          <mxGeometry relative="1" as="geometry" />
        </mxCell>
        <mxCell id="8bV6FElE6FeWnAUVZOFj-25" value="Set Word[n] = Sentence[m]" style="whiteSpace=wrap;html=1;" vertex="1" parent="WIyWlLk6GJQsqaUBKTNV-1">
          <mxGeometry x="430" y="450" width="165" height="40" as="geometry" />
        </mxCell>
        <mxCell id="8bV6FElE6FeWnAUVZOFj-29" value="T" style="edgeStyle=orthogonalEdgeStyle;rounded=0;orthogonalLoop=1;jettySize=auto;html=1;exitX=1;exitY=0.5;exitDx=0;exitDy=0;entryX=0;entryY=0.5;entryDx=0;entryDy=0;" edge="1" parent="WIyWlLk6GJQsqaUBKTNV-1" source="8bV6FElE6FeWnAUVZOFj-27" target="8bV6FElE6FeWnAUVZOFj-25">
          <mxGeometry relative="1" as="geometry" />
        </mxCell>
        <mxCell id="8bV6FElE6FeWnAUVZOFj-31" value="" style="edgeStyle=orthogonalEdgeStyle;rounded=0;orthogonalLoop=1;jettySize=auto;html=1;" edge="1" parent="WIyWlLk6GJQsqaUBKTNV-1" source="8bV6FElE6FeWnAUVZOFj-27" target="8bV6FElE6FeWnAUVZOFj-30">
          <mxGeometry relative="1" as="geometry" />
        </mxCell>
        <mxCell id="8bV6FElE6FeWnAUVZOFj-32" value="&lt;div&gt;F&lt;/div&gt;" style="edgeLabel;html=1;align=center;verticalAlign=middle;resizable=0;points=[];" vertex="1" connectable="0" parent="8bV6FElE6FeWnAUVZOFj-31">
          <mxGeometry x="-0.2444" y="1" relative="1" as="geometry">
            <mxPoint as="offset" />
          </mxGeometry>
        </mxCell>
        <mxCell id="8bV6FElE6FeWnAUVZOFj-27" value="isTab" style="rhombus;whiteSpace=wrap;html=1;" vertex="1" parent="WIyWlLk6GJQsqaUBKTNV-1">
          <mxGeometry x="260" y="555" width="80" height="80" as="geometry" />
        </mxCell>
        <mxCell id="8bV6FElE6FeWnAUVZOFj-34" value="" style="edgeStyle=orthogonalEdgeStyle;rounded=0;orthogonalLoop=1;jettySize=auto;html=1;" edge="1" parent="WIyWlLk6GJQsqaUBKTNV-1" source="8bV6FElE6FeWnAUVZOFj-30" target="8bV6FElE6FeWnAUVZOFj-33">
          <mxGeometry relative="1" as="geometry" />
        </mxCell>
        <mxCell id="8bV6FElE6FeWnAUVZOFj-30" value="Add current Word to Words array" style="whiteSpace=wrap;html=1;" vertex="1" parent="WIyWlLk6GJQsqaUBKTNV-1">
          <mxGeometry x="240" y="680" width="120" height="60" as="geometry" />
        </mxCell>
        <mxCell id="8bV6FElE6FeWnAUVZOFj-39" value="F" style="edgeStyle=orthogonalEdgeStyle;rounded=0;orthogonalLoop=1;jettySize=auto;html=1;exitX=0;exitY=0.5;exitDx=0;exitDy=0;entryX=0.5;entryY=1;entryDx=0;entryDy=0;" edge="1" parent="WIyWlLk6GJQsqaUBKTNV-1" source="8bV6FElE6FeWnAUVZOFj-33" target="8bV6FElE6FeWnAUVZOFj-19">
          <mxGeometry relative="1" as="geometry" />
        </mxCell>
        <mxCell id="8bV6FElE6FeWnAUVZOFj-41" value="T" style="edgeStyle=orthogonalEdgeStyle;rounded=0;orthogonalLoop=1;jettySize=auto;html=1;" edge="1" parent="WIyWlLk6GJQsqaUBKTNV-1" source="8bV6FElE6FeWnAUVZOFj-33" target="8bV6FElE6FeWnAUVZOFj-40">
          <mxGeometry relative="1" as="geometry" />
        </mxCell>
        <mxCell id="8bV6FElE6FeWnAUVZOFj-33" value="&lt;div&gt;is period&lt;/div&gt;&lt;div&gt;or \0&lt;br&gt;&lt;/div&gt;" style="rhombus;whiteSpace=wrap;html=1;" vertex="1" parent="WIyWlLk6GJQsqaUBKTNV-1">
          <mxGeometry x="260" y="780" width="80" height="80" as="geometry" />
        </mxCell>
        <mxCell id="8bV6FElE6FeWnAUVZOFj-38" style="edgeStyle=orthogonalEdgeStyle;rounded=0;orthogonalLoop=1;jettySize=auto;html=1;exitX=0;exitY=0.5;exitDx=0;exitDy=0;entryX=1;entryY=0.5;entryDx=0;entryDy=0;" edge="1" parent="WIyWlLk6GJQsqaUBKTNV-1" source="8bV6FElE6FeWnAUVZOFj-36" target="8bV6FElE6FeWnAUVZOFj-21">
          <mxGeometry relative="1" as="geometry" />
        </mxCell>
        <mxCell id="8bV6FElE6FeWnAUVZOFj-36" value="increment word and sentence counters m and n" style="whiteSpace=wrap;html=1;" vertex="1" parent="WIyWlLk6GJQsqaUBKTNV-1">
          <mxGeometry x="430" y="340" width="165" height="40" as="geometry" />
        </mxCell>
        <mxCell id="8bV6FElE6FeWnAUVZOFj-43" value="" style="edgeStyle=orthogonalEdgeStyle;rounded=0;orthogonalLoop=1;jettySize=auto;html=1;" edge="1" parent="WIyWlLk6GJQsqaUBKTNV-1" source="8bV6FElE6FeWnAUVZOFj-40" target="8bV6FElE6FeWnAUVZOFj-42">
          <mxGeometry relative="1" as="geometry" />
        </mxCell>
        <mxCell id="8bV6FElE6FeWnAUVZOFj-40" value="Set Words array index i to 0" style="whiteSpace=wrap;html=1;" vertex="1" parent="WIyWlLk6GJQsqaUBKTNV-1">
          <mxGeometry x="245" y="920" width="110" height="40" as="geometry" />
        </mxCell>
        <mxCell id="8bV6FElE6FeWnAUVZOFj-45" value="" style="edgeStyle=orthogonalEdgeStyle;rounded=0;orthogonalLoop=1;jettySize=auto;html=1;" edge="1" parent="WIyWlLk6GJQsqaUBKTNV-1" source="8bV6FElE6FeWnAUVZOFj-42" target="8bV6FElE6FeWnAUVZOFj-44">
          <mxGeometry relative="1" as="geometry" />
        </mxCell>
        <mxCell id="8bV6FElE6FeWnAUVZOFj-42" value="Access word at Words[i]" style="whiteSpace=wrap;html=1;" vertex="1" parent="WIyWlLk6GJQsqaUBKTNV-1">
          <mxGeometry x="220" y="990" width="160" height="40" as="geometry" />
        </mxCell>
        <mxCell id="8bV6FElE6FeWnAUVZOFj-50" value="T" style="edgeStyle=orthogonalEdgeStyle;rounded=0;orthogonalLoop=1;jettySize=auto;html=1;" edge="1" parent="WIyWlLk6GJQsqaUBKTNV-1" source="8bV6FElE6FeWnAUVZOFj-44" target="8bV6FElE6FeWnAUVZOFj-49">
          <mxGeometry relative="1" as="geometry" />
        </mxCell>
        <mxCell id="8bV6FElE6FeWnAUVZOFj-52" value="F" style="edgeStyle=orthogonalEdgeStyle;rounded=0;orthogonalLoop=1;jettySize=auto;html=1;" edge="1" parent="WIyWlLk6GJQsqaUBKTNV-1" source="8bV6FElE6FeWnAUVZOFj-44" target="8bV6FElE6FeWnAUVZOFj-51">
          <mxGeometry relative="1" as="geometry" />
        </mxCell>
        <mxCell id="8bV6FElE6FeWnAUVZOFj-44" value="endsInTab" style="rhombus;whiteSpace=wrap;html=1;" vertex="1" parent="WIyWlLk6GJQsqaUBKTNV-1">
          <mxGeometry x="260" y="1060" width="80" height="80" as="geometry" />
        </mxCell>
        <mxCell id="8bV6FElE6FeWnAUVZOFj-61" value="" style="edgeStyle=orthogonalEdgeStyle;rounded=0;orthogonalLoop=1;jettySize=auto;html=1;" edge="1" parent="WIyWlLk6GJQsqaUBKTNV-1" source="8bV6FElE6FeWnAUVZOFj-49" target="8bV6FElE6FeWnAUVZOFj-60">
          <mxGeometry relative="1" as="geometry" />
        </mxCell>
        <mxCell id="8bV6FElE6FeWnAUVZOFj-49" value="Set autocomple words array index j to 0" style="whiteSpace=wrap;html=1;" vertex="1" parent="WIyWlLk6GJQsqaUBKTNV-1">
          <mxGeometry x="240" y="1200" width="120" height="60" as="geometry" />
        </mxCell>
        <mxCell id="8bV6FElE6FeWnAUVZOFj-53" style="edgeStyle=orthogonalEdgeStyle;rounded=0;orthogonalLoop=1;jettySize=auto;html=1;exitX=0.5;exitY=0;exitDx=0;exitDy=0;entryX=0;entryY=0.5;entryDx=0;entryDy=0;" edge="1" parent="WIyWlLk6GJQsqaUBKTNV-1" source="8bV6FElE6FeWnAUVZOFj-51" target="8bV6FElE6FeWnAUVZOFj-42">
          <mxGeometry relative="1" as="geometry" />
        </mxCell>
        <mxCell id="8bV6FElE6FeWnAUVZOFj-51" value="increment Words array index i" style="whiteSpace=wrap;html=1;" vertex="1" parent="WIyWlLk6GJQsqaUBKTNV-1">
          <mxGeometry x="80" y="1070" width="120" height="60" as="geometry" />
        </mxCell>
        <mxCell id="8bV6FElE6FeWnAUVZOFj-59" value="" style="edgeStyle=orthogonalEdgeStyle;rounded=0;orthogonalLoop=1;jettySize=auto;html=1;" edge="1" parent="WIyWlLk6GJQsqaUBKTNV-1" source="8bV6FElE6FeWnAUVZOFj-56" target="8bV6FElE6FeWnAUVZOFj-58">
          <mxGeometry relative="1" as="geometry" />
        </mxCell>
        <mxCell id="8bV6FElE6FeWnAUVZOFj-65" value="" style="edgeStyle=orthogonalEdgeStyle;rounded=0;orthogonalLoop=1;jettySize=auto;html=1;" edge="1" parent="WIyWlLk6GJQsqaUBKTNV-1" source="8bV6FElE6FeWnAUVZOFj-56" target="8bV6FElE6FeWnAUVZOFj-64">
          <mxGeometry relative="1" as="geometry" />
        </mxCell>
        <mxCell id="8bV6FElE6FeWnAUVZOFj-56" value="&lt;div&gt;Words[i] matches&amp;nbsp;&lt;/div&gt;&lt;div&gt;beginning of&lt;/div&gt;&lt;div&gt;AutoWords[j]&lt;/div&gt;" style="rhombus;whiteSpace=wrap;html=1;" vertex="1" parent="WIyWlLk6GJQsqaUBKTNV-1">
          <mxGeometry x="225" y="1400" width="150" height="110" as="geometry" />
        </mxCell>
        <mxCell id="8bV6FElE6FeWnAUVZOFj-58" value="&lt;div&gt;Replace Words[i] with AutoWords[j]&lt;/div&gt;" style="whiteSpace=wrap;html=1;" vertex="1" parent="WIyWlLk6GJQsqaUBKTNV-1">
          <mxGeometry x="450" y="1425" width="120" height="60" as="geometry" />
        </mxCell>
        <mxCell id="8bV6FElE6FeWnAUVZOFj-63" value="" style="edgeStyle=orthogonalEdgeStyle;rounded=0;orthogonalLoop=1;jettySize=auto;html=1;" edge="1" parent="WIyWlLk6GJQsqaUBKTNV-1" source="8bV6FElE6FeWnAUVZOFj-60" target="8bV6FElE6FeWnAUVZOFj-56">
          <mxGeometry relative="1" as="geometry" />
        </mxCell>
        <mxCell id="8bV6FElE6FeWnAUVZOFj-60" value="Access word at AutoWords[j]" style="whiteSpace=wrap;html=1;" vertex="1" parent="WIyWlLk6GJQsqaUBKTNV-1">
          <mxGeometry x="240" y="1300" width="120" height="60" as="geometry" />
        </mxCell>
        <mxCell id="8bV6FElE6FeWnAUVZOFj-68" value="" style="edgeStyle=orthogonalEdgeStyle;rounded=0;orthogonalLoop=1;jettySize=auto;html=1;" edge="1" parent="WIyWlLk6GJQsqaUBKTNV-1" source="8bV6FElE6FeWnAUVZOFj-64" target="8bV6FElE6FeWnAUVZOFj-67">
          <mxGeometry relative="1" as="geometry" />
        </mxCell>
        <mxCell id="8bV6FElE6FeWnAUVZOFj-64" value="increment autocomplete words array index j" style="whiteSpace=wrap;html=1;" vertex="1" parent="WIyWlLk6GJQsqaUBKTNV-1">
          <mxGeometry x="75" y="1425" width="120" height="60" as="geometry" />
        </mxCell>
        <mxCell id="8bV6FElE6FeWnAUVZOFj-69" value="T" style="edgeStyle=orthogonalEdgeStyle;rounded=0;orthogonalLoop=1;jettySize=auto;html=1;" edge="1" parent="WIyWlLk6GJQsqaUBKTNV-1" source="8bV6FElE6FeWnAUVZOFj-67" target="8bV6FElE6FeWnAUVZOFj-60">
          <mxGeometry relative="1" as="geometry" />
        </mxCell>
        <mxCell id="8bV6FElE6FeWnAUVZOFj-71" value="F" style="edgeStyle=orthogonalEdgeStyle;rounded=0;orthogonalLoop=1;jettySize=auto;html=1;" edge="1" parent="WIyWlLk6GJQsqaUBKTNV-1" source="8bV6FElE6FeWnAUVZOFj-67" target="8bV6FElE6FeWnAUVZOFj-70">
          <mxGeometry relative="1" as="geometry">
            <Array as="points">
              <mxPoint x="50" y="1330" />
            </Array>
          </mxGeometry>
        </mxCell>
        <mxCell id="8bV6FElE6FeWnAUVZOFj-67" value="j &amp;lt; autocomplete words length" style="rhombus;whiteSpace=wrap;html=1;" vertex="1" parent="WIyWlLk6GJQsqaUBKTNV-1">
          <mxGeometry x="95" y="1290" width="80" height="80" as="geometry" />
        </mxCell>
        <mxCell id="8bV6FElE6FeWnAUVZOFj-73" value="" style="edgeStyle=orthogonalEdgeStyle;rounded=0;orthogonalLoop=1;jettySize=auto;html=1;" edge="1" parent="WIyWlLk6GJQsqaUBKTNV-1" source="8bV6FElE6FeWnAUVZOFj-70" target="8bV6FElE6FeWnAUVZOFj-72">
          <mxGeometry relative="1" as="geometry" />
        </mxCell>
        <mxCell id="8bV6FElE6FeWnAUVZOFj-70" value="Replace Words[i] with the same word, minus the tab" style="whiteSpace=wrap;html=1;" vertex="1" parent="WIyWlLk6GJQsqaUBKTNV-1">
          <mxGeometry x="20" y="1560" width="130" height="70" as="geometry" />
        </mxCell>
        <mxCell id="8bV6FElE6FeWnAUVZOFj-75" value="" style="edgeStyle=orthogonalEdgeStyle;rounded=0;orthogonalLoop=1;jettySize=auto;html=1;" edge="1" parent="WIyWlLk6GJQsqaUBKTNV-1" source="8bV6FElE6FeWnAUVZOFj-72" target="8bV6FElE6FeWnAUVZOFj-74">
          <mxGeometry relative="1" as="geometry" />
        </mxCell>
        <mxCell id="8bV6FElE6FeWnAUVZOFj-72" value="&lt;div&gt;Display sentence&lt;/div&gt;" style="shape=parallelogram;perimeter=parallelogramPerimeter;whiteSpace=wrap;html=1;fixedSize=1;" vertex="1" parent="WIyWlLk6GJQsqaUBKTNV-1">
          <mxGeometry x="235" y="1565" width="120" height="60" as="geometry" />
        </mxCell>
        <mxCell id="8bV6FElE6FeWnAUVZOFj-77" value="" style="edgeStyle=orthogonalEdgeStyle;rounded=0;orthogonalLoop=1;jettySize=auto;html=1;" edge="1" parent="WIyWlLk6GJQsqaUBKTNV-1" source="8bV6FElE6FeWnAUVZOFj-74" target="8bV6FElE6FeWnAUVZOFj-76">
          <mxGeometry relative="1" as="geometry" />
        </mxCell>
        <mxCell id="8bV6FElE6FeWnAUVZOFj-74" value="&lt;div&gt;Prompt user for&lt;/div&gt;&lt;div&gt;repeat run&lt;br&gt;&lt;/div&gt;" style="shape=parallelogram;perimeter=parallelogramPerimeter;whiteSpace=wrap;html=1;fixedSize=1;" vertex="1" parent="WIyWlLk6GJQsqaUBKTNV-1">
          <mxGeometry x="395" y="1565" width="120" height="60" as="geometry" />
        </mxCell>
        <mxCell id="8bV6FElE6FeWnAUVZOFj-79" value="F" style="edgeStyle=orthogonalEdgeStyle;rounded=0;orthogonalLoop=1;jettySize=auto;html=1;" edge="1" parent="WIyWlLk6GJQsqaUBKTNV-1" source="8bV6FElE6FeWnAUVZOFj-76" target="8bV6FElE6FeWnAUVZOFj-78">
          <mxGeometry relative="1" as="geometry" />
        </mxCell>
        <mxCell id="8bV6FElE6FeWnAUVZOFj-81" value="T" style="edgeStyle=orthogonalEdgeStyle;rounded=0;orthogonalLoop=1;jettySize=auto;html=1;entryX=1;entryY=0;entryDx=0;entryDy=0;" edge="1" parent="WIyWlLk6GJQsqaUBKTNV-1" source="8bV6FElE6FeWnAUVZOFj-76">
          <mxGeometry relative="1" as="geometry">
            <mxPoint x="640" y="1605.06" as="sourcePoint" />
            <mxPoint x="240" y="20.05999999999989" as="targetPoint" />
            <Array as="points">
              <mxPoint x="800" y="1595" />
              <mxPoint x="800" y="20" />
            </Array>
          </mxGeometry>
        </mxCell>
        <mxCell id="8bV6FElE6FeWnAUVZOFj-76" value="repeat?" style="rhombus;whiteSpace=wrap;html=1;" vertex="1" parent="WIyWlLk6GJQsqaUBKTNV-1">
          <mxGeometry x="560" y="1555" width="80" height="80" as="geometry" />
        </mxCell>
        <mxCell id="8bV6FElE6FeWnAUVZOFj-78" value="&lt;div&gt;Exit&lt;/div&gt;" style="whiteSpace=wrap;html=1;" vertex="1" parent="WIyWlLk6GJQsqaUBKTNV-1">
          <mxGeometry x="540" y="1680" width="120" height="60" as="geometry" />
        </mxCell>
      </root>
    </mxGraphModel>
  </diagram>
</mxfile>
